<?xml version="1.0" encoding="UTF-8" standalone="no"?>
<svg width="105px" height="20px" viewBox="0 0 105 20" version="1.1" xmlns="http://www.w3.org/2000/svg" xmlns:xlink="http://www.w3.org/1999/xlink" xmlns:sketch="http://www.bohemiancoding.com/sketch/ns">
    <!-- Generator: Sketch 3.3.3 (12081) - http://www.bohemiancoding.com/sketch -->
    <title>volkswargen_ci</title>
    <desc>Created with Sketch.</desc>
    <defs></defs>
    <g id="Page-1" stroke="none" stroke-width="1" fill="none" fill-rule="evenodd" sketch:type="MSPage">
        <g id="volkswargen_ci" sketch:type="MSLayerGroup">
            <g id="Page-1">

                <g id="travis">
                    <linearGradient id="a" x2="0" y2="100%"><stop offset="0" stop-color="#bbb" stop-opacity=".1"/><stop offset="1" stop-opacity=".1"/></linearGradient>
                    <rect rx="3" width="105" height="20" fill="#555"/>
                    <rect rx="3" x="37" width="68" height="20" fill="#4c1"/>
                    <path fill="#4c1" d="M37 0h4v20h-4z"/>
                    <rect rx="3" width="105" height="20" fill="url(#a)"/>

                    <g xmlns="http://www.w3.org/2000/svg" fill="#fff" text-anchor="middle" font-family="DejaVu Sans,Verdana,Geneva,sans-serif" font-size="11"><text x="19.5" y="15" fill="#010101" fill-opacity=".3">build</text><text x="19.5" y="14">build</text><text x="62.5" y="15" fill="#010101" fill-opacity=".3">passing</text><text x="62.5" y="14">passing</text></g>
                    <g id="1444267215_Volkswagen_2-Copy" transform="translate(88.000000, 6.000000)" fill-opacity="0.3" fill="#000000" sketch:type="MSShapeGroup">
                        <g id="Group">
                            <path d="M5.5,0 C2.46243177,0 0,2.46243177 0,5.5 C0,8.53756823 2.46243177,11 5.5,11 C8.53756823,11 11,8.53756823 11,5.5 C11,2.46243177 8.53756823,0 5.5,0 L5.5,0 L5.5,0 Z M5.5,10.5071283 C2.73463136,10.5071283 0.49287169,8.26536864 0.49287169,5.5 C0.49287169,2.73463136 2.73463136,0.49287169 5.5,0.49287169 C8.26536864,0.49287169 10.5071283,2.73463136 10.5071283,5.5 C10.5071283,8.26536864 8.26536864,10.5071283 5.5,10.5071283 L5.5,10.5071283 L5.5,10.5071283 Z" id="Shape"></path>
                            <path d="M6.58568432,1.74720774 C5.97239511,1.54772912 5.02762729,1.5523442 4.41285947,1.74720774 C4.75587576,2.57648676 5.11421589,3.39044196 5.51048473,4.16644603 C5.8499165,3.34108758 6.22965173,2.55598778 6.58568432,1.74720774 L6.58568432,1.74720774 L6.58568432,1.74720774 Z" id="Shape"></path>
                            <path d="M7.54891242,2.21760896 C7.0860387,3.28541548 6.6309389,4.36104073 6.1152831,5.37606517 L4.83845418,5.37606517 C4.34865173,4.32770468 3.91246029,3.2257332 3.38242159,2.21760896 C2.97118737,2.48584318 2.59622403,2.79037067 2.35200611,3.22564358 C2.99114868,4.49053157 3.50248065,5.88323014 4.16644603,7.12331772 C4.39551935,6.6206334 4.59726069,6.09063951 4.86085743,5.62250102 L6.16008961,5.62250102 C6.39290428,6.12890428 6.5600998,6.70090428 6.87690428,7.12331772 C7.42632179,5.78364766 8.04801222,4.51622811 8.62413442,3.20324033 C8.34895519,2.79146843 8.016222,2.43722811 7.54891242,2.21760896 L7.54891242,2.21760896 L7.54891242,2.21760896 Z" id="Shape"></path>
                            <path d="M9.25133605,4.5024501 C9.25005906,4.48878411 9.24799796,4.47592464 9.22893279,4.48004684 C8.59285947,5.98691242 7.87266191,7.40974338 7.25769246,8.93773523 C8.63210998,8.25952138 9.71405295,6.67115275 9.25133605,4.5024501 L9.25133605,4.5024501 L9.25133605,4.5024501 Z" id="Shape"></path>
                            <path d="M3.74085132,8.91533198 C3.06259267,7.45062933 2.43671283,5.93348065 1.72480448,4.5024501 C1.25084114,6.64921996 2.36997352,8.31622403 3.74085132,8.91533198 L3.74085132,8.91533198 L3.74085132,8.91533198 Z" id="Shape"></path>
                            <path d="M4.41285947,9.22893279 C5.02455804,9.39500815 5.9874501,9.428389 6.56328106,9.20652953 C6.18948269,8.43041344 5.88603055,7.58401833 5.46567821,6.85450102 C5.13048065,7.66173523 4.749222,8.42290835 4.41285947,9.22893279 L4.41285947,9.22893279 L4.41285947,9.22893279 Z" id="Shape"></path>
                        </g>
                    </g>
                    <g id="1444267215_Volkswagen_2" transform="translate(88.000000, 5.000000)" fill="#FFFFFF" sketch:type="MSShapeGroup">
                        <g id="Group">
                            <path d="M5.5,0 C2.46243177,0 0,2.46243177 0,5.5 C0,8.53756823 2.46243177,11 5.5,11 C8.53756823,11 11,8.53756823 11,5.5 C11,2.46243177 8.53756823,0 5.5,0 L5.5,0 L5.5,0 Z M5.5,10.5071283 C2.73463136,10.5071283 0.49287169,8.26536864 0.49287169,5.5 C0.49287169,2.73463136 2.73463136,0.49287169 5.5,0.49287169 C8.26536864,0.49287169 10.5071283,2.73463136 10.5071283,5.5 C10.5071283,8.26536864 8.26536864,10.5071283 5.5,10.5071283 L5.5,10.5071283 L5.5,10.5071283 Z" id="Shape"></path>
                            <path d="M6.58568432,1.74720774 C5.97239511,1.54772912 5.02762729,1.5523442 4.41285947,1.74720774 C4.75587576,2.57648676 5.11421589,3.39044196 5.51048473,4.16644603 C5.8499165,3.34108758 6.22965173,2.55598778 6.58568432,1.74720774 L6.58568432,1.74720774 L6.58568432,1.74720774 Z" id="Shape"></path>
                            <path d="M7.54891242,2.21760896 C7.0860387,3.28541548 6.6309389,4.36104073 6.1152831,5.37606517 L4.83845418,5.37606517 C4.34865173,4.32770468 3.91246029,3.2257332 3.38242159,2.21760896 C2.97118737,2.48584318 2.59622403,2.79037067 2.35200611,3.22564358 C2.99114868,4.49053157 3.50248065,5.88323014 4.16644603,7.12331772 C4.39551935,6.6206334 4.59726069,6.09063951 4.86085743,5.62250102 L6.16008961,5.62250102 C6.39290428,6.12890428 6.5600998,6.70090428 6.87690428,7.12331772 C7.42632179,5.78364766 8.04801222,4.51622811 8.62413442,3.20324033 C8.34895519,2.79146843 8.016222,2.43722811 7.54891242,2.21760896 L7.54891242,2.21760896 L7.54891242,2.21760896 Z" id="Shape"></path>
                            <path d="M9.25133605,4.5024501 C9.25005906,4.48878411 9.24799796,4.47592464 9.22893279,4.48004684 C8.59285947,5.98691242 7.87266191,7.40974338 7.25769246,8.93773523 C8.63210998,8.25952138 9.71405295,6.67115275 9.25133605,4.5024501 L9.25133605,4.5024501 L9.25133605,4.5024501 Z" id="Shape"></path>
                            <path d="M3.74085132,8.91533198 C3.06259267,7.45062933 2.43671283,5.93348065 1.72480448,4.5024501 C1.25084114,6.64921996 2.36997352,8.31622403 3.74085132,8.91533198 L3.74085132,8.91533198 L3.74085132,8.91533198 Z" id="Shape"></path>
                            <path d="M4.41285947,9.22893279 C5.02455804,9.39500815 5.9874501,9.428389 6.56328106,9.20652953 C6.18948269,8.43041344 5.88603055,7.58401833 5.46567821,6.85450102 C5.13048065,7.66173523 4.749222,8.42290835 4.41285947,9.22893279 L4.41285947,9.22893279 L4.41285947,9.22893279 Z" id="Shape"></path>
                        </g>
                    </g>
                </g>
            </g>
        </g>
    </g>
</svg>
